<svg width="30" height="30" viewBox="0 0 30 30" fill="none" xmlns="http://www.w3.org/2000/svg">
<g clip-path="url(#clip0_305_2966)">
<path fill-rule="evenodd" clip-rule="evenodd" d="M0 15C0 6.71562 6.71562 0 15 0C23.2844 0 30 6.71562 30 15C30 23.2844 23.2844 30 15 30C6.71562 30 0 23.2844 0 15ZM12.497 15C12.497 13.6228 13.6208 12.4989 14.998 12.4989C16.3751 12.4989 17.499 13.6228 17.499 15C17.499 16.3772 16.3751 17.5011 14.998 17.5011C13.6208 17.5011 12.497 16.3772 12.497 15ZM22.4994 14.6211C22.4993 14.7473 22.4992 14.8736 22.4992 15C22.4992 15.1414 22.4994 15.2826 22.4996 15.4236C22.5009 16.316 22.5022 17.2031 22.4504 18.0958C22.3922 19.2967 22.1202 20.3605 21.2402 21.2405C20.3621 22.1186 19.2964 22.3925 18.0956 22.4507C17.188 22.5017 16.2862 22.5007 15.3787 22.4997C15.2525 22.4996 15.1263 22.4994 14.9999 22.4994C14.8737 22.4994 14.7477 22.4996 14.6217 22.4997C13.7155 22.5007 12.8134 22.5017 11.9041 22.4507C10.7033 22.3925 9.63946 22.1204 8.75951 21.2405C7.88143 20.3624 7.6075 19.2967 7.54934 18.0958C7.49827 17.1882 7.49927 16.2848 7.50028 15.3782C7.50042 15.2522 7.50056 15.1261 7.50056 15C7.50056 14.8738 7.50042 14.7478 7.50028 14.6218C7.49927 13.7156 7.49827 12.8135 7.54934 11.9042C7.6075 10.7033 7.87956 9.6395 8.75951 8.75953C9.63759 7.88144 10.7033 7.60751 11.9041 7.54934C12.8117 7.49828 13.7135 7.49927 14.621 7.50028C14.7472 7.50042 14.8734 7.50056 14.9999 7.50056C15.126 7.50056 15.2521 7.50042 15.378 7.50028C16.2843 7.49927 17.1863 7.49827 18.0956 7.54934C19.2964 7.60751 20.3603 7.87956 21.2402 8.75953C22.1183 9.63763 22.3922 10.7033 22.4504 11.9042C22.5014 12.8118 22.5004 13.7136 22.4994 14.6211ZM11.1498 15C11.1498 17.1296 12.8685 18.8482 14.998 18.8482C17.1275 18.8482 18.8461 17.1296 18.8461 15C18.8461 12.8704 17.1275 11.1518 14.998 11.1518C12.8685 11.1518 11.1498 12.8704 11.1498 15ZM18.105 10.9942C18.105 11.4914 18.5065 11.8929 19.0037 11.8929C19.1218 11.893 19.2387 11.8699 19.3478 11.8248C19.4569 11.7797 19.5561 11.7135 19.6396 11.63C19.723 11.5465 19.7892 11.4474 19.8343 11.3383C19.8795 11.2292 19.9026 11.1122 19.9025 10.9942C19.9025 10.497 19.5009 10.0954 19.0037 10.0954C18.5065 10.0954 18.105 10.497 18.105 10.9942Z" fill="white"/>
</g>
<defs>
<clipPath id="clip0_305_2966">
<rect width="30" height="30" fill="white"/>
</clipPath>
</defs>
</svg>
